<svg width="32" height="32" viewBox="0 0 32 32" fill="none" xmlns="http://www.w3.org/2000/svg">
  <!-- Background circle -->
  <circle cx="16" cy="16" r="15" fill="#1E40AF"/>
  
  <!-- HTML document (left side) -->
  <rect x="6" y="8" width="8" height="10" rx="1" fill="white" stroke="#E5E7EB" stroke-width="0.5"/>
  <path d="M7.5 10 L9 10 M7.5 11 L12.5 11 M7.5 12 L11.5 12 M7.5 13 L10 13" stroke="#6B7280" stroke-width="0.5" stroke-linecap="round"/>
  <text x="7" y="16" font-family="monospace" font-size="3" fill="#DC2626" font-weight="bold">&lt;/&gt;</text>
  
  <!-- Arrow (middle) -->
  <path d="M15 14 L17 16 L15 18" stroke="white" stroke-width="1" stroke-linecap="round" stroke-linejoin="round"/>
  <line x1="15" y1="16" x2="19" y2="16" stroke="white" stroke-width="1" stroke-linecap="round"/>
  
  <!-- PDF document (right side) -->
  <rect x="18" y="8" width="8" height="10" rx="1" fill="white" stroke="#E5E7EB" stroke-width="0.5"/>
  <rect x="19" y="9" width="6" height="1" fill="#EF4444"/>
  <rect x="19" y="10.5" width="6" height="0.5" fill="#6B7280"/>
  <rect x="19" y="11.5" width="5" height="0.5" fill="#6B7280"/>
  <rect x="19" y="12.5" width="5.5" height="0.5" fill="#6B7280"/>
  <rect x="19" y="13.5" width="4.5" height="0.5" fill="#6B7280"/>
  <text x="24" y="16.5" font-family="Arial" font-size="2.5" fill="#DC2626" font-weight="bold">PDF</text>
</svg>
