<svg width="64" height="64" viewBox="0 0 64 64" fill="none" xmlns="http://www.w3.org/2000/svg">
  <!-- Background circle -->
  <circle cx="32" cy="32" r="30" fill="#1E40AF" stroke="#3B82F6" stroke-width="2"/>
  
  <!-- HTML document (left side) -->
  <rect x="12" y="16" width="16" height="20" rx="2" fill="white" stroke="#E5E7EB" stroke-width="1"/>
  <path d="M15 20 L18 20 M15 22 L25 22 M15 24 L23 24 M15 26 L20 26" stroke="#6B7280" stroke-width="1" stroke-linecap="round"/>
  <text x="14" y="32" font-family="monospace" font-size="6" fill="#DC2626" font-weight="bold">&lt;/&gt;</text>
  
  <!-- Arrow (middle) -->
  <path d="M30 28 L34 32 L30 36" stroke="white" stroke-width="2" stroke-linecap="round" stroke-linejoin="round"/>
  <line x1="30" y1="32" x2="38" y2="32" stroke="white" stroke-width="2" stroke-linecap="round"/>
  
  <!-- PDF document (right side) -->
  <rect x="36" y="16" width="16" height="20" rx="2" fill="white" stroke="#E5E7EB" stroke-width="1"/>
  <rect x="38" y="18" width="12" height="2" fill="#EF4444"/>
  <rect x="38" y="21" width="12" height="1" fill="#6B7280"/>
  <rect x="38" y="23" width="10" height="1" fill="#6B7280"/>
  <rect x="38" y="25" width="11" height="1" fill="#6B7280"/>
  <rect x="38" y="27" width="9" height="1" fill="#6B7280"/>
  <text x="48" y="33" font-family="Arial" font-size="5" fill="#DC2626" font-weight="bold">PDF</text>
</svg>
